<?xml version="1.0" encoding="UTF-8"?>
<svg xmlns="http://www.w3.org/2000/svg" xmlns:xlink="http://www.w3.org/1999/xlink" version="1.1" viewBox="0 0 500 500">
  <!-- Generator: Adobe Illustrator 29.1.0, SVG Export Plug-In . SVG Version: 2.1.0 Build 142)  -->
  <defs>
    <style>
      .st0 {
        fill: none;
      }

      .st1 {
        fill: url(#radial-gradient);
      }

      .st2 {
        isolation: isolate;
      }

      .st3 {
        clip-path: url(#clippath-1);
      }

      .st4 {
        clip-path: url(#clippath-3);
      }

      .st5 {
        clip-path: url(#clippath-4);
      }

      .st6 {
        clip-path: url(#clippath-2);
      }

      .st7 {
        clip-path: url(#clippath-7);
      }

      .st8 {
        clip-path: url(#clippath-6);
      }

      .st9 {
        clip-path: url(#clippath-8);
      }

      .st10 {
        clip-path: url(#clippath-5);
      }

      .st11 {
        fill: #3662a8;
      }

      .st12 {
        fill: #fff;
      }

      .st13 {
        mix-blend-mode: overlay;
        opacity: .5;
      }

      .st14 {
        fill: url(#radial-gradient1);
      }

      .st15 {
        fill: url(#radial-gradient3);
      }

      .st16 {
        fill: url(#radial-gradient2);
      }

      .st17 {
        clip-path: url(#clippath);
      }

      .st18 {
        fill: #5d5e5e;
      }
    </style>
    <clipPath id="clippath">
      <rect class="st0" width="500" height="500"/>
    </clipPath>
    <clipPath id="clippath-1">
      <path class="st0" d="M300.22,273.42c-15.92,10.94-41.83,18.87-62.7,18.77-6.15-.03-12.07-.66-17.72-1.83-5.72,1.69-11.61,2.95-17.65,3.75,13.75,8.87,30.04,14.06,47.53,14.14,44.35.21,81.3-32.35,88.66-75.28l-37.94-.18-.19,40.62Z"/>
    </clipPath>
    <radialGradient id="radial-gradient" cx="0" cy="500" fx="0" fy="500" r="1" gradientTransform="translate(-70729.02 320.06) rotate(90) scale(139.89 -142.05)" gradientUnits="userSpaceOnUse">
      <stop offset="0" stop-color="#4a9ac8"/>
      <stop offset=".05" stop-color="#4693c3"/>
      <stop offset=".31" stop-color="#3675b0"/>
      <stop offset=".54" stop-color="#2c63a4"/>
      <stop offset=".7" stop-color="#295da0"/>
      <stop offset="1" stop-color="#295da0"/>
    </radialGradient>
    <clipPath id="clippath-2">
      <path class="st0" d="M304.99,175.63c-.04,8.88-1.04,17.53-2.88,25.85l36.25.17c-4.21-24.71-18.26-46-37.9-59.59,3,10.66,4.58,21.93,4.53,33.57"/>
    </clipPath>
    <radialGradient id="radial-gradient1" cx="0" cy="500" fx="0" fy="500" r="1" gradientTransform="translate(-82316.55 75.26) rotate(90) scale(162.8 -165.31)" gradientUnits="userSpaceOnUse">
      <stop offset="0" stop-color="#daae46"/>
      <stop offset=".11" stop-color="#d1924d"/>
      <stop offset=".29" stop-color="#c36858"/>
      <stop offset=".46" stop-color="#ba4a60"/>
      <stop offset=".6" stop-color="#b43865"/>
      <stop offset=".7" stop-color="#b23267"/>
      <stop offset="1" stop-color="#b23267"/>
    </radialGradient>
    <clipPath id="clippath-3">
      <path class="st0" d="M202.15,294.12c6.04-.8,11.93-2.06,17.65-3.75-25.04-5.18-44.66-21.04-54.21-42.92,6.71,19.41,19.74,35.8,36.57,46.67"/>
    </clipPath>
    <radialGradient id="radial-gradient2" cx="0" cy="500" fx="0" fy="500" r="1" gradientTransform="translate(-70806.06 397.76) rotate(90) scale(139.89 -142.05)" gradientUnits="userSpaceOnUse">
      <stop offset="0" stop-color="#4a9ac8"/>
      <stop offset=".05" stop-color="#4693c3"/>
      <stop offset=".31" stop-color="#3675b0"/>
      <stop offset=".54" stop-color="#2c63a4"/>
      <stop offset=".7" stop-color="#295da0"/>
      <stop offset="1" stop-color="#295da0"/>
    </radialGradient>
    <clipPath id="clippath-4">
      <rect class="st0" width="500" height="500"/>
    </clipPath>
    <clipPath id="clippath-5">
      <rect class="st0" x="165.59" y="247.45" width="54.21" height="46.67"/>
    </clipPath>
    <clipPath id="clippath-6">
      <path class="st0" d="M169.07,178.53c13.53-23.3,39.87-38.21,72.09-38.06,22.33.11,46.29,8.91,61.67,22.76l-24.77,30.19c-9.97-9.8-24.55-16.22-37.28-16.29-21.08-.1-37.02,16.57-37.13,38.82-.11,22.68,15.89,39.28,37.17,39.38,6.05.03,14.2-2.05,22.15-5.62l.08-17.1-30.57-.14.15-31.33,69.48.33c1.84-8.32,2.84-16.97,2.88-25.85.05-11.64-1.53-22.91-4.53-33.57-14.23-9.85-31.4-15.65-49.92-15.74-.14,0-.29,0-.43,0-35.79,0-66.71,21.34-81.05,52.21"/>
    </clipPath>
    <radialGradient id="radial-gradient3" cx="0" cy="500" fx="0" fy="500" r="1" gradientTransform="translate(-82379.52 176.53) rotate(90) scale(162.8 -165.31)" gradientUnits="userSpaceOnUse">
      <stop offset="0" stop-color="#daae46"/>
      <stop offset=".11" stop-color="#d1924d"/>
      <stop offset=".29" stop-color="#c36858"/>
      <stop offset=".46" stop-color="#ba4a60"/>
      <stop offset=".6" stop-color="#b43865"/>
      <stop offset=".7" stop-color="#b23267"/>
      <stop offset="1" stop-color="#b23267"/>
    </radialGradient>
    <clipPath id="clippath-7">
      <rect class="st0" width="500" height="500"/>
    </clipPath>
    <clipPath id="clippath-8">
      <rect class="st0" x="169.07" y="126.32" width="135.92" height="129.02"/>
    </clipPath>
  </defs>
  <g class="st2">
    <g id="Layer_1">
      <g class="st17">
        <g class="st3">
          <rect class="st1" x="232.1" y="202.35" width="76.31" height="136.55" transform="translate(-1.66 539.6) rotate(-89.73)"/>
        </g>
        <g class="st6">
          <rect class="st14" x="289.53" y="152.76" width="59.77" height="38.18" transform="translate(146.05 490.45) rotate(-89.73)"/>
        </g>
        <g class="st4">
          <rect class="st16" x="169.23" y="243.57" width="46.92" height="54.43" transform="translate(-79 462.19) rotate(-89.73)"/>
        </g>
        <g class="st5">
          <g class="st13">
            <g class="st10">
              <path class="st12" d="M165.59,247.45c6.71,19.41,19.74,35.8,36.57,46.67,6.04-.8,11.93-2.06,17.65-3.75-25.04-5.18-44.66-21.04-54.21-42.92"/>
            </g>
          </g>
        </g>
        <g class="st8">
          <rect class="st15" x="172.21" y="122.55" width="129.69" height="136.58" transform="translate(45.1 426.99) rotate(-89.73)"/>
        </g>
        <g class="st7">
          <g class="st13">
            <g class="st9">
              <path class="st12" d="M300.47,142.06c-14.23-9.85-31.4-15.65-49.92-15.74-35.97-.17-67.07,21.22-81.48,52.21,13.53-23.3,39.87-38.21,72.08-38.06,22.33.11,46.29,8.91,61.67,22.76l-24.77,30.19c-9.97-9.8-24.55-16.22-37.28-16.28-21.08-.1-37.02,16.57-37.13,38.82-.11,22.68,15.88,39.28,37.17,39.38,6.05.03,14.2-2.05,22.15-5.62l.08-17.1-30.57-.15.15-31.33,69.48.33c1.84-8.32,2.84-16.97,2.88-25.85.05-11.64-1.53-22.91-4.52-33.57"/>
            </g>
          </g>
          <path class="st11" d="M122.62,347.74c-1.71,0-3.29-.29-4.75-.87-1.46-.58-2.72-1.41-3.78-2.49-1.06-1.08-1.89-2.35-2.49-3.81-.6-1.46-.89-3.07-.89-4.83s.3-3.37.89-4.83c.6-1.46,1.43-2.73,2.5-3.81,1.07-1.08,2.34-1.91,3.81-2.49,1.47-.58,3.08-.88,4.83-.88,2.04,0,3.86.36,5.46,1.09,1.61.73,2.93,1.77,3.98,3.14l-3.89,3.76c-.74-.86-1.54-1.5-2.39-1.93-.85-.43-1.81-.64-2.86-.64-.93,0-1.77.15-2.53.46-.76.31-1.41.75-1.95,1.34-.54.58-.95,1.28-1.25,2.08-.3.8-.45,1.71-.45,2.72s.15,1.86.45,2.67c.3.82.71,1.51,1.25,2.1.53.58,1.18,1.03,1.93,1.35.75.32,1.58.48,2.49.48s1.79-.16,2.66-.48c.86-.32,1.74-.86,2.62-1.63l3.43,4.59c-1.24.95-2.67,1.67-4.29,2.18-1.63.51-3.22.76-4.78.76M126.29,343.94v-8.71h5.4v9.57l-5.4-.86Z"/>
          <polygon class="st11" points="133.27 347.27 133.27 324.17 139.38 324.17 139.38 342.09 149.69 342.09 149.69 347.27 133.27 347.27"/>
          <path class="st11" d="M160.34,347.74c-1.73,0-3.32-.3-4.79-.89-1.46-.59-2.73-1.43-3.81-2.52-1.08-1.09-1.92-2.36-2.52-3.81-.6-1.45-.9-3.05-.9-4.79s.3-3.33.9-4.79,1.44-2.72,2.52-3.81c1.08-1.09,2.35-1.93,3.81-2.52,1.46-.59,3.06-.89,4.79-.89s3.35.3,4.8.89c1.45.59,2.71,1.44,3.78,2.52,1.07,1.09,1.91,2.36,2.52,3.81.61,1.45.91,3.05.91,4.79s-.3,3.34-.91,4.8c-.61,1.46-1.45,2.73-2.52,3.81s-2.33,1.91-3.78,2.51c-1.45.59-3.05.89-4.8.89M160.34,342.32c.82,0,1.59-.15,2.3-.46.71-.31,1.33-.75,1.85-1.34.52-.58.94-1.28,1.24-2.1.3-.81.45-1.71.45-2.71s-.15-1.92-.45-2.72c-.3-.8-.71-1.5-1.24-2.08-.52-.58-1.14-1.03-1.85-1.34-.71-.31-1.48-.46-2.3-.46s-1.59.15-2.3.46c-.71.31-1.33.75-1.85,1.34-.52.58-.94,1.28-1.24,2.08-.3.8-.45,1.71-.45,2.72s.15,1.89.45,2.71c.3.81.71,1.51,1.24,2.1.52.58,1.14,1.03,1.85,1.34.71.31,1.48.46,2.3.46"/>
          <path class="st11" d="M173.25,347.27v-23.1h9.88c1.98,0,3.68.34,5.11,1.02,1.43.68,2.54,1.67,3.32,2.95.78,1.29,1.17,2.81,1.17,4.57s-.39,3.24-1.17,4.5c-.78,1.27-1.89,2.23-3.32,2.9-1.43.67-3.13,1.01-5.11,1.01h-6.48l2.72-2.74v8.88h-6.11ZM179.36,339.09l-2.72-3h6.11c1.28,0,2.23-.3,2.86-.89.63-.59.94-1.42.94-2.48s-.31-1.91-.94-2.51c-.63-.59-1.58-.89-2.86-.89h-6.11l2.72-3v12.77ZM186.62,347.27l-5.37-8.41h6.51l5.4,8.41h-6.54Z"/>
          <polygon class="st11" points="198.94 347.27 198.94 337.51 200.36 341.43 190.69 324.17 197.15 324.17 204.12 336.68 200.39 336.68 207.4 324.17 213.32 324.17 203.69 341.43 205.05 337.51 205.05 347.27 198.94 347.27"/>
          <path class="st11" d="M212.3,334.8l2.31-8.58.83,3.56c-1.03,0-1.87-.32-2.53-.97-.66-.65-.99-1.52-.99-2.62s.33-2.02,1-2.69c.67-.67,1.51-1.01,2.52-1.01s1.84.34,2.5,1.01.99,1.57.99,2.69c0,.31-.02.62-.06.94-.04.32-.13.69-.26,1.12-.13.43-.36,1.01-.66,1.73l-1.98,4.82h-3.67Z"/>
          <path class="st11" d="M227.55,347.74c-1.77,0-3.47-.24-5.11-.71-1.64-.47-2.97-1.08-4-1.83l2.01-4.82c.97.66,2.08,1.21,3.35,1.63,1.27.43,2.53.64,3.78.64.84,0,1.52-.08,2.04-.25.51-.16.89-.38,1.13-.66.24-.28.35-.6.35-.97,0-.53-.23-.94-.68-1.25-.45-.31-1.04-.56-1.76-.76-.72-.2-1.52-.4-2.39-.59-.88-.2-1.75-.45-2.62-.76s-1.67-.71-2.39-1.2c-.72-.5-1.31-1.14-1.76-1.95-.45-.8-.68-1.82-.68-3.05,0-1.39.36-2.64,1.07-3.76.71-1.12,1.78-2.02,3.2-2.71,1.42-.68,3.19-1.02,5.31-1.02,1.42,0,2.82.17,4.18.51,1.37.34,2.59.84,3.66,1.5l-1.88,4.85c-1.03-.59-2.05-1.04-3.06-1.34-1.01-.3-1.99-.45-2.93-.45-.85,0-1.52.09-2.04.28-.51.19-.89.43-1.11.74-.23.31-.34.66-.34,1.06,0,.51.22.91.66,1.21.44.3,1.03.54,1.76.72.73.19,1.53.38,2.41.58.87.2,1.75.44,2.62.74.88.3,1.67.69,2.39,1.19.72.49,1.3,1.14,1.74,1.95.44.8.66,1.81.66,3.02,0,1.34-.36,2.58-1.07,3.71-.71,1.13-1.77,2.04-3.18,2.72-1.41.68-3.19,1.02-5.33,1.02"/>
          <path class="st11" d="M244.29,347.27v-23.1h11.05c2.84,0,4.96.56,6.36,1.67,1.4,1.11,2.1,2.57,2.1,4.37,0,1.19-.29,2.23-.88,3.12-.59.89-1.41,1.6-2.47,2.11-1.06.52-2.32.77-3.78.77l.62-1.58c1.52,0,2.85.25,3.98.74,1.13.49,2.01,1.21,2.64,2.15s.94,2.07.94,3.42c0,2-.76,3.56-2.27,4.67-1.51,1.11-3.72,1.67-6.62,1.67h-11.67ZM250.34,342.56h5.12c1.05,0,1.85-.19,2.39-.58.55-.39.82-.97.82-1.76s-.27-1.38-.82-1.76c-.54-.39-1.34-.58-2.39-.58h-5.56v-4.52h4.63c1.03,0,1.8-.19,2.32-.56.51-.37.77-.93.77-1.68s-.26-1.3-.77-1.67c-.51-.36-1.29-.54-2.32-.54h-4.2v13.66Z"/>
          <path class="st11" d="M275.69,347.74c-3.19,0-5.68-.93-7.47-2.8s-2.68-4.52-2.68-7.95v-12.8h6.11v12.61c0,1.98.36,3.4,1.1,4.26.73.86,1.73,1.29,3.01,1.29s2.27-.43,2.99-1.29c.72-.86,1.08-2.28,1.08-4.26v-12.61h6.02v12.8c0,3.43-.89,6.08-2.69,7.95-1.79,1.87-4.28,2.8-7.47,2.8"/>
          <path class="st11" d="M295.26,347.74c-1.77,0-3.47-.24-5.11-.71-1.64-.47-2.97-1.08-4-1.83l2.01-4.82c.97.66,2.08,1.21,3.35,1.63,1.27.43,2.53.64,3.78.64.84,0,1.52-.08,2.04-.25.51-.16.89-.38,1.13-.66.24-.28.36-.6.36-.97,0-.53-.23-.94-.68-1.25-.45-.31-1.04-.56-1.76-.76-.72-.2-1.52-.4-2.39-.59s-1.75-.45-2.62-.76-1.67-.71-2.39-1.2c-.72-.5-1.31-1.14-1.76-1.95-.45-.8-.68-1.82-.68-3.05,0-1.39.36-2.64,1.07-3.76.71-1.12,1.78-2.02,3.2-2.71,1.42-.68,3.19-1.02,5.31-1.02,1.42,0,2.81.17,4.18.51,1.37.34,2.59.84,3.66,1.5l-1.88,4.85c-1.03-.59-2.05-1.04-3.06-1.34-1.01-.3-1.99-.45-2.93-.45-.84,0-1.52.09-2.04.28-.52.19-.89.43-1.11.74-.23.31-.34.66-.34,1.06,0,.51.22.91.66,1.21.44.3,1.03.54,1.76.72.73.19,1.53.38,2.41.58.88.2,1.75.44,2.62.74.87.3,1.67.69,2.39,1.19.72.49,1.3,1.14,1.74,1.95.44.8.66,1.81.66,3.02,0,1.34-.36,2.58-1.07,3.71s-1.77,2.04-3.18,2.72c-1.41.68-3.18,1.02-5.33,1.02"/>
          <rect class="st11" x="305.32" y="324.17" width="6.11" height="23.1"/>
          <polygon class="st11" points="313.47 347.27 313.47 324.17 318.51 324.17 330.42 339.55 328.05 339.55 328.05 324.17 334.04 324.17 334.04 347.27 329 347.27 317.09 331.9 319.46 331.9 319.46 347.27 313.47 347.27"/>
          <path class="st11" d="M342.09,342.23h11.3v5.05h-17.35v-23.1h16.95v5.05h-10.9v13ZM341.66,333.12h10.03v4.88h-10.03v-4.88Z"/>
          <path class="st11" d="M362.07,347.74c-1.77,0-3.47-.24-5.11-.71-1.64-.47-2.97-1.08-4-1.83l2.01-4.82c.97.66,2.08,1.21,3.35,1.63,1.27.43,2.53.64,3.78.64.84,0,1.52-.08,2.04-.25.51-.16.89-.38,1.13-.66.24-.28.36-.6.36-.97,0-.53-.23-.94-.68-1.25-.45-.31-1.04-.56-1.76-.76-.72-.2-1.52-.4-2.39-.59s-1.75-.45-2.62-.76-1.67-.71-2.39-1.2c-.72-.5-1.31-1.14-1.76-1.95-.45-.8-.68-1.82-.68-3.05,0-1.39.36-2.64,1.07-3.76.71-1.12,1.78-2.02,3.2-2.71,1.42-.68,3.19-1.02,5.31-1.02,1.42,0,2.81.17,4.18.51,1.37.34,2.59.84,3.66,1.5l-1.88,4.85c-1.03-.59-2.05-1.04-3.06-1.34-1.01-.3-1.99-.45-2.93-.45-.84,0-1.52.09-2.04.28-.52.19-.89.43-1.11.74-.23.31-.34.66-.34,1.06,0,.51.22.91.66,1.21.44.3,1.03.54,1.76.72.73.19,1.53.38,2.41.58.88.2,1.75.44,2.62.74.87.3,1.67.69,2.39,1.19.72.49,1.3,1.14,1.74,1.95.44.8.66,1.81.66,3.02,0,1.34-.36,2.58-1.07,3.71s-1.77,2.04-3.18,2.72c-1.41.68-3.18,1.02-5.33,1.02"/>
          <path class="st11" d="M379.73,347.74c-1.77,0-3.47-.24-5.11-.71-1.64-.47-2.97-1.08-4-1.83l2.01-4.82c.97.66,2.08,1.21,3.35,1.63,1.27.43,2.53.64,3.78.64.84,0,1.52-.08,2.04-.25.51-.16.89-.38,1.13-.66.24-.28.36-.6.36-.97,0-.53-.23-.94-.68-1.25-.45-.31-1.04-.56-1.76-.76-.72-.2-1.52-.4-2.39-.59s-1.75-.45-2.62-.76-1.67-.71-2.39-1.2c-.72-.5-1.31-1.14-1.76-1.95-.45-.8-.68-1.82-.68-3.05,0-1.39.36-2.64,1.07-3.76.71-1.12,1.78-2.02,3.2-2.71,1.42-.68,3.19-1.02,5.31-1.02,1.42,0,2.81.17,4.18.51,1.37.34,2.59.84,3.66,1.5l-1.88,4.85c-1.03-.59-2.05-1.04-3.06-1.34-1.01-.3-1.99-.45-2.93-.45-.84,0-1.52.09-2.04.28-.52.19-.89.43-1.11.74-.23.31-.34.66-.34,1.06,0,.51.22.91.66,1.21.44.3,1.03.54,1.76.72.73.19,1.53.38,2.41.58.88.2,1.75.44,2.62.74.87.3,1.67.69,2.39,1.19.72.49,1.3,1.14,1.74,1.95.44.8.66,1.81.66,3.02,0,1.34-.36,2.58-1.07,3.71s-1.77,2.04-3.18,2.72c-1.41.68-3.18,1.02-5.33,1.02"/>
        </g>
        <g>
          <path class="st18" d="M128.17,369.02v-12.6h5.17c1.26,0,2.37.26,3.34.78.97.52,1.73,1.26,2.27,2.21.54.95.81,2.05.81,3.31s-.27,2.36-.81,3.31c-.54.95-1.29,1.68-2.27,2.21-.97.52-2.09.78-3.34.78h-5.17ZM130.36,367.04h2.85c.89,0,1.65-.18,2.3-.54.65-.36,1.15-.86,1.52-1.51.36-.65.55-1.4.55-2.27s-.18-1.65-.55-2.29c-.37-.64-.87-1.13-1.52-1.49-.65-.36-1.41-.54-2.3-.54h-2.85v8.64Z"/>
          <path class="st18" d="M141.25,369.02v-12.6h8.61v1.98h-6.42v8.64h6.65v1.98h-8.84ZM143.27,363.58v-1.93h5.86v1.93h-5.86Z"/>
          <path class="st18" d="M155.03,369.02l-5.15-12.6h2.37l4.6,11.39h-1.38l4.68-11.39h2.17l-5.14,12.6h-2.16Z"/>
          <path class="st18" d="M162.74,369.02v-12.6h8.61v1.98h-6.42v8.64h6.65v1.98h-8.84ZM164.76,363.58v-1.93h5.86v1.93h-5.86Z"/>
          <path class="st18" d="M173.18,369.02v-12.6h2.19v10.62h6.16v1.98h-8.35Z"/>
          <path class="st18" d="M187.75,369.2c-.91,0-1.75-.16-2.53-.49-.78-.32-1.46-.78-2.03-1.37-.57-.59-1.02-1.28-1.33-2.06-.31-.79-.47-1.64-.47-2.56s.16-1.8.47-2.58.76-1.47,1.33-2.05c.57-.58,1.25-1.04,2.02-1.36.77-.32,1.62-.49,2.54-.49s1.75.16,2.53.48c.77.32,1.45.77,2.01,1.35s1.01,1.27,1.32,2.06c.31.79.47,1.66.47,2.59s-.16,1.8-.47,2.58c-.31.79-.75,1.47-1.32,2.06s-1.24,1.04-2.01,1.36c-.77.32-1.62.48-2.53.48ZM187.75,367.15c.6,0,1.14-.11,1.64-.32s.93-.52,1.31-.92c.37-.4.66-.86.87-1.4.21-.54.31-1.13.31-1.78s-.1-1.24-.3-1.78-.49-1.01-.87-1.4c-.38-.4-.81-.7-1.31-.92s-1.05-.32-1.64-.32-1.15.11-1.66.32-.95.53-1.32.93c-.37.4-.66.87-.88,1.4-.21.53-.32,1.12-.32,1.77s.11,1.22.32,1.76.51,1.01.88,1.41.81.71,1.32.93,1.06.32,1.66.32Z"/>
          <path class="st18" d="M195.56,369.02v-12.6h4.85c1.04,0,1.94.18,2.69.53.75.35,1.32.87,1.73,1.54.4.67.61,1.48.61,2.41s-.2,1.72-.61,2.38-.98,1.18-1.73,1.55c-.75.37-1.64.55-2.69.55h-3.62l.96-1.08v4.72h-2.19ZM197.75,364.56l-.96-1.15h3.52c.97,0,1.69-.22,2.18-.66.49-.44.73-1.05.73-1.84s-.24-1.41-.73-1.84-1.22-.66-2.18-.66h-3.52l.96-1.15v7.31Z"/>
          <path class="st18" d="M206.79,369.02v-12.6h1.8l5.15,9.2h-.94l5.07-9.2h1.8l.03,12.6h-2.1v-9.13h.42l-4.28,7.7h-.99l-4.38-7.7h.51v9.13h-2.09Z"/>
          <path class="st18" d="M222.05,369.02v-12.6h8.61v1.98h-6.42v8.64h6.65v1.98h-8.84ZM224.07,363.58v-1.93h5.86v1.93h-5.86Z"/>
          <path class="st18" d="M232.51,369.02v-12.6h1.8l7.39,9.72h-.89v-9.72h2.16v12.6h-1.8l-7.38-9.72h.89v9.72h-2.17Z"/>
          <path class="st18" d="M247.7,369.02v-10.62h-3.91v-1.98h10v1.98h-3.91v10.62h-2.19Z"/>
          <path class="st18" d="M256.78,369.02l5.3-12.6h2.16l5.32,12.6h-2.31l-4.55-11.36h.88l-4.56,11.36h-2.24ZM259.22,366.1l.61-1.84h6.35l.59,1.84h-7.54Z"/>
          <path class="st18" d="M270.21,369.02v-12.6h1.8l7.39,9.72h-.89v-9.72h2.16v12.6h-1.8l-7.38-9.72h.89v9.72h-2.17Z"/>
          <path class="st18" d="M283.01,369.02v-12.6h5.17c1.26,0,2.37.26,3.34.78.97.52,1.73,1.26,2.26,2.21.54.95.81,2.05.81,3.31s-.27,2.36-.81,3.31c-.54.95-1.29,1.68-2.26,2.21-.97.52-2.09.78-3.34.78h-5.17ZM285.2,367.04h2.85c.89,0,1.65-.18,2.3-.54.65-.36,1.15-.86,1.52-1.51.36-.65.55-1.4.55-2.27s-.18-1.65-.55-2.29c-.37-.64-.87-1.13-1.52-1.49s-1.41-.54-2.3-.54h-2.85v8.64Z"/>
          <path class="st18" d="M303.57,369.2c-.92,0-1.8-.14-2.64-.42-.84-.28-1.51-.64-2.01-1.09l.76-1.82c.47.4,1.05.73,1.75.99.7.26,1.41.4,2.14.4.62,0,1.12-.07,1.5-.22.38-.14.66-.34.84-.58.18-.25.27-.52.27-.84,0-.38-.13-.69-.39-.93-.26-.23-.59-.42-1-.56s-.86-.26-1.36-.38c-.5-.11-1-.25-1.5-.42-.5-.17-.96-.38-1.37-.64-.42-.26-.75-.6-1-1.04-.25-.43-.38-.98-.38-1.66s.17-1.31.51-1.88c.34-.57.86-1.03,1.57-1.37.7-.34,1.59-.51,2.67-.51.71,0,1.41.1,2.11.29.7.19,1.3.47,1.82.83l-.69,1.82c-.53-.34-1.07-.58-1.63-.75s-1.1-.24-1.62-.24c-.6,0-1.08.08-1.46.23-.38.16-.66.36-.83.62-.17.26-.26.54-.26.86,0,.38.13.69.38.93.25.23.58.42.99.55.41.13.87.26,1.37.38.5.12,1,.26,1.5.42s.95.37,1.36.63.75.6,1,1.03c.25.43.38.97.38,1.63s-.17,1.29-.51,1.86c-.34.57-.87,1.03-1.57,1.37s-1.6.51-2.68.51Z"/>
          <path class="st18" d="M309.67,369.02v-12.6h8.61v1.98h-6.42v8.64h6.65v1.98h-8.84ZM311.69,363.58v-1.93h5.86v1.93h-5.86Z"/>
          <path class="st18" d="M320.11,369.02v-12.6h4.83c1.57,0,2.8.4,3.7,1.2.89.8,1.34,1.89,1.34,3.29,0,.92-.2,1.72-.61,2.38-.4.66-.98,1.17-1.73,1.53-.75.36-1.64.54-2.69.54h-3.62l.96-1.04v4.72h-2.19ZM322.3,364.56l-.96-1.13h3.52c.97,0,1.69-.22,2.18-.67.49-.44.73-1.06.73-1.85s-.24-1.41-.73-1.84-1.21-.66-2.18-.66h-3.52l.96-1.15v7.31ZM327.82,369.02l-2.98-4.57h2.34l3,4.57h-2.36Z"/>
          <path class="st18" d="M335.08,369.02l-5.15-12.6h2.37l4.6,11.39h-1.38l4.68-11.39h2.17l-5.14,12.6h-2.16Z"/>
          <path class="st18" d="M342.79,369.02v-12.6h2.19v12.6h-2.19Z"/>
          <path class="st18" d="M352.8,369.2c-.91,0-1.75-.16-2.51-.48-.76-.32-1.43-.77-2-1.36-.57-.59-1.01-1.27-1.32-2.05-.31-.78-.47-1.64-.47-2.59s.16-1.81.47-2.59c.31-.78.76-1.46,1.33-2.05.57-.59,1.24-1.04,2-1.36.76-.32,1.6-.48,2.51-.48.97,0,1.85.18,2.64.53.8.35,1.47.88,2.02,1.58l-1.41,1.42c-.44-.49-.92-.86-1.45-1.11-.53-.25-1.09-.37-1.7-.37s-1.18.11-1.69.32-.95.52-1.33.92c-.38.4-.67.86-.88,1.4s-.32,1.13-.32,1.78.11,1.24.32,1.78.51,1.01.88,1.4c.38.4.82.7,1.33.92s1.08.32,1.69.32,1.17-.12,1.7-.37c.53-.25,1.01-.62,1.45-1.12l1.41,1.42c-.55.7-1.22,1.22-2.02,1.58-.8.36-1.68.54-2.66.54Z"/>
          <path class="st18" d="M358.61,369.02v-12.6h8.61v1.98h-6.42v8.64h6.65v1.98h-8.84ZM360.63,363.58v-1.93h5.86v1.93h-5.86Z"/>
          <path class="st18" d="M372.7,369.2c-.92,0-1.8-.14-2.64-.42-.84-.28-1.51-.64-2.01-1.09l.76-1.82c.47.4,1.05.73,1.75.99.7.26,1.41.4,2.14.4.62,0,1.12-.07,1.5-.22.38-.14.66-.34.84-.58.18-.25.27-.52.27-.84,0-.38-.13-.69-.39-.93-.26-.23-.59-.42-1-.56s-.86-.26-1.36-.38c-.5-.11-1-.25-1.5-.42-.5-.17-.96-.38-1.37-.64-.42-.26-.75-.6-1-1.04-.25-.43-.38-.98-.38-1.66s.17-1.31.51-1.88c.34-.57.86-1.03,1.57-1.37.7-.34,1.59-.51,2.67-.51.71,0,1.41.1,2.11.29.7.19,1.3.47,1.82.83l-.69,1.82c-.53-.34-1.07-.58-1.63-.75s-1.1-.24-1.62-.24c-.6,0-1.08.08-1.46.23-.38.16-.66.36-.83.62-.17.26-.26.54-.26.86,0,.38.13.69.38.93.25.23.58.42.99.55.41.13.87.26,1.37.38.5.12,1,.26,1.5.42s.95.37,1.36.63.75.6,1,1.03c.25.43.38.97.38,1.63s-.17,1.29-.51,1.86c-.34.57-.87,1.03-1.57,1.37s-1.6.51-2.68.51Z"/>
        </g>
      </g>
    </g>
  </g>
</svg>